<svg width="256" height="72" viewBox="0 0 256 72" fill="none" xmlns="http://www.w3.org/2000/svg">
<path d="M28.6049 46.65C25.7049 46.65 23.5049 45.9833 22.0049 44.65C20.5049 43.2833 19.7549 41.3167 19.7549 38.75C19.7549 36.9167 20.0716 35.4833 20.7049 34.45C21.3382 33.3833 21.9216 32.5833 22.4549 32.05C22.9216 31.5833 23.3049 31.3 23.6049 31.2C23.9049 31.0667 24.1549 31 24.3549 31C24.7882 31 25.1216 31.1167 25.3549 31.35C25.6216 31.5833 25.7549 31.8833 25.7549 32.25C25.7549 32.4833 25.7049 32.7 25.6049 32.9C25.5382 33.0667 25.4549 33.2167 25.3549 33.35C24.6549 34.25 24.3049 35.3667 24.3049 36.7C24.3049 38.2333 24.8382 39.35 25.9049 40.05C26.9716 40.75 28.3549 41.1 30.0549 41.1C32.4216 41.1 34.1382 40.45 35.2049 39.15C36.2716 37.8167 36.8882 36.0333 37.0549 33.8C37.1216 33 37.1549 32.0833 37.1549 31.05C37.1882 30.0167 37.2049 29.0333 37.2049 28.1C37.1382 24.6 36.8549 21.6833 36.3549 19.35C35.5216 19.2833 34.6216 19.2333 33.6549 19.2C32.6882 19.1667 31.7716 19.15 30.9049 19.15C27.9049 19.15 25.5549 19.3667 23.8549 19.8C23.2882 19.9333 22.8216 20 22.4549 20C22.1882 20 21.9882 19.95 21.8549 19.85C21.7549 19.7167 21.7049 19.4333 21.7049 19C21.7049 18.4 21.8049 17.8167 22.0049 17.25C22.2049 16.6833 22.4716 16.1833 22.8049 15.75C23.1716 15.25 23.6049 14.9 24.1049 14.7C24.6049 14.4667 25.2216 14.3167 25.9549 14.25C27.0882 14.15 28.4049 14.0667 29.9049 14C31.4382 13.9 33.1716 13.85 35.1049 13.85C36.7049 13.85 37.9882 13.8833 38.9549 13.95C39.9549 14.0167 40.6549 14.0833 41.0549 14.15C41.5216 14.2167 41.8549 14.3667 42.0549 14.6C42.2549 14.8333 42.3549 15.2167 42.3549 15.75C42.3549 16.2167 42.2716 16.7 42.1049 17.2C41.9716 17.7 41.7716 18.1333 41.5049 18.5C41.5716 22.9667 41.4882 27.0167 41.2549 30.65C41.0549 34.25 40.4049 37.3 39.3049 39.8C37.2382 44.3667 33.6716 46.65 28.6049 46.65ZM50.8772 46.65C48.8772 46.65 47.2605 46.0333 46.0272 44.8C44.8272 43.5333 44.2272 41.7333 44.2272 39.4C44.2272 37.7333 44.5438 36.0833 45.1772 34.45C45.8438 32.7833 46.7938 31.2833 48.0272 29.95C49.2605 28.6167 50.7438 27.55 52.4772 26.75C54.2105 25.95 56.1605 25.55 58.3272 25.55C60.3272 25.55 62.0272 25.9 63.4272 26.6C64.8605 27.2667 65.5772 28.1833 65.5772 29.35C65.5772 29.65 65.5438 30.05 65.4772 30.55C65.4105 31.0167 65.3272 31.4 65.2272 31.7C65.1272 31.9667 64.9772 32.2167 64.7772 32.45C64.6105 32.65 64.3772 32.75 64.0772 32.75C63.9438 32.75 63.6938 32.7 63.3272 32.6C63.1938 33.3 63.0938 33.9833 63.0272 34.65C62.9605 35.3167 62.9272 35.9833 62.9272 36.65C62.9272 37.9167 63.1105 39.05 63.4772 40.05C63.8772 41.0167 64.6438 41.6167 65.7772 41.85C66.0772 41.9167 66.3105 42.0167 66.4772 42.15C66.6772 42.2833 66.7772 42.5667 66.7772 43C66.7772 43.3667 66.6772 43.8333 66.4772 44.4C66.3105 44.9667 65.9605 45.4833 65.4272 45.95C64.9272 46.3833 64.1938 46.6 63.2272 46.6C61.9272 46.6 60.9272 46.1333 60.2272 45.2C59.5272 44.2333 59.1772 42.8667 59.1772 41.1C58.2772 42.7333 57.1272 44.0667 55.7272 45.1C54.3605 46.1333 52.7438 46.65 50.8772 46.65ZM52.4772 41.45C53.8105 41.45 54.9772 41.0333 55.9772 40.2C57.0105 39.3667 57.8105 38.3167 58.3772 37.05C58.7438 36.25 59.0272 35.3833 59.2272 34.45C59.4272 33.4833 59.5605 32.5333 59.6272 31.6C59.0605 31.3333 58.4105 31.1167 57.6772 30.95C56.9438 30.7833 56.1772 30.7 55.3772 30.7C53.3438 30.7 51.6605 31.3 50.3272 32.5C49.0272 33.7 48.3772 35.2 48.3772 37C48.3772 38.3333 48.7438 39.4167 49.4772 40.25C50.2105 41.05 51.2105 41.45 52.4772 41.45ZM76.3725 59.8C73.8725 59.8 71.8891 59.2833 70.4225 58.25C68.9558 57.2167 68.2225 55.8833 68.2225 54.25C68.2225 53.05 68.5891 51.9833 69.3225 51.05C70.0891 50.1167 71.0891 49.65 72.3225 49.65C73.0225 49.65 73.3725 49.85 73.3725 50.25C73.3725 50.4833 73.3225 50.75 73.2225 51.05C73.1558 51.35 73.1225 51.65 73.1225 51.95C73.1225 52.8833 73.6558 53.5667 74.7225 54C75.7891 54.4667 77.0725 54.7 78.5725 54.7C79.5058 54.7 80.4558 54.6 81.4225 54.4C82.3891 54.2 83.1891 53.8833 83.8225 53.45C84.4891 53.05 84.8225 52.5 84.8225 51.8C84.8225 51.0333 84.4391 50.4667 83.6725 50.1C82.9058 49.7333 81.9391 49.45 80.7725 49.25C79.6058 49.0833 78.4058 48.9167 77.1725 48.75C75.9725 48.6167 74.9391 48.3833 74.0725 48.05C72.9725 47.6833 72.1558 47.2333 71.6225 46.7C71.0891 46.1667 70.8225 45.4833 70.8225 44.65C70.8225 43.0833 71.7725 41.8333 73.6725 40.9C72.5725 40.3333 71.7391 39.5333 71.1725 38.5C70.6391 37.4667 70.3725 36.3167 70.3725 35.05C70.3725 33.4167 70.7891 31.8833 71.6225 30.45C72.4891 29.0167 73.7558 27.85 75.4225 26.95C77.1225 26.0167 79.2391 25.55 81.7725 25.55C82.9058 25.55 84.0558 25.6667 85.2225 25.9C86.3891 26.1 87.3558 26.5 88.1225 27.1C88.9225 27.6667 89.3225 28.5 89.3225 29.6C89.3225 30 89.2391 30.45 89.0725 30.95C88.9058 31.4167 88.5891 31.65 88.1225 31.65C87.9225 31.65 87.6558 31.6167 87.3225 31.55C86.9891 31.45 86.6891 31.3667 86.4225 31.3C86.4891 31.6333 86.5391 32 86.5725 32.4C86.6391 32.8 86.6725 33.2167 86.6725 33.65C86.6725 35.6167 86.0058 37.4 84.6725 39C83.3391 40.5667 81.3891 41.5 78.8225 41.8C77.8891 41.8667 77.1891 41.9833 76.7225 42.15C76.2891 42.2833 76.0725 42.5333 76.0725 42.9C76.0725 43.2333 76.2725 43.4833 76.6725 43.65C77.0725 43.7833 77.5891 43.8833 78.2225 43.95C80.2558 44.1167 82.0558 44.4 83.6225 44.8C85.1891 45.2 86.4058 45.8333 87.2725 46.7C88.1725 47.6 88.6225 48.8667 88.6225 50.5C88.6225 52.4 88.0558 54.0333 86.9225 55.4C85.8225 56.8 84.3391 57.8833 82.4725 58.65C80.6058 59.4167 78.5725 59.8 76.3725 59.8ZM78.2725 37.45C79.8058 37.45 81.0058 37.0333 81.8725 36.2C82.7391 35.3667 83.1725 34.2833 83.1725 32.95C83.1725 32.5833 83.1391 32.2167 83.0725 31.85C83.0058 31.45 82.9391 31.1167 82.8725 30.85C82.3391 30.6833 81.8225 30.5833 81.3225 30.55C80.8225 30.4833 80.3391 30.45 79.8725 30.45C78.1058 30.45 76.7225 30.7833 75.7225 31.45C74.7225 32.1167 74.2225 33.0333 74.2225 34.2C74.2225 35.2333 74.5891 36.0333 75.3225 36.6C76.0558 37.1667 77.0391 37.45 78.2725 37.45ZM97.8498 46.65C95.8498 46.65 94.2332 46.0333 92.9998 44.8C91.7998 43.5333 91.1998 41.7333 91.1998 39.4C91.1998 37.7333 91.5165 36.0833 92.1498 34.45C92.8165 32.7833 93.7665 31.2833 94.9998 29.95C96.2332 28.6167 97.7165 27.55 99.4498 26.75C101.183 25.95 103.133 25.55 105.3 25.55C107.3 25.55 109 25.9 110.4 26.6C111.833 27.2667 112.55 28.1833 112.55 29.35C112.55 29.65 112.516 30.05 112.45 30.55C112.383 31.0167 112.3 31.4 112.2 31.7C112.1 31.9667 111.95 32.2167 111.75 32.45C111.583 32.65 111.35 32.75 111.05 32.75C110.916 32.75 110.666 32.7 110.3 32.6C110.166 33.3 110.066 33.9833 110 34.65C109.933 35.3167 109.9 35.9833 109.9 36.65C109.9 37.9167 110.083 39.05 110.45 40.05C110.85 41.0167 111.616 41.6167 112.75 41.85C113.05 41.9167 113.283 42.0167 113.45 42.15C113.65 42.2833 113.75 42.5667 113.75 43C113.75 43.3667 113.65 43.8333 113.45 44.4C113.283 44.9667 112.933 45.4833 112.4 45.95C111.9 46.3833 111.166 46.6 110.2 46.6C108.9 46.6 107.9 46.1333 107.2 45.2C106.5 44.2333 106.15 42.8667 106.15 41.1C105.25 42.7333 104.1 44.0667 102.7 45.1C101.333 46.1333 99.7165 46.65 97.8498 46.65ZM99.4498 41.45C100.783 41.45 101.95 41.0333 102.95 40.2C103.983 39.3667 104.783 38.3167 105.35 37.05C105.716 36.25 106 35.3833 106.2 34.45C106.4 33.4833 106.533 32.5333 106.6 31.6C106.033 31.3333 105.383 31.1167 104.65 30.95C103.916 30.7833 103.15 30.7 102.35 30.7C100.316 30.7 98.6332 31.3 97.2998 32.5C95.9998 33.7 95.3498 35.2 95.3498 37C95.3498 38.3333 95.7165 39.4167 96.4498 40.25C97.1832 41.05 98.1832 41.45 99.4498 41.45ZM119.645 46.55C118.445 46.55 117.912 46.15 118.045 45.35C118.412 43.9167 118.712 42.4667 118.945 41C119.212 39.5 119.345 38.0667 119.345 36.7C119.345 34.9333 119.228 33.65 118.995 32.85C118.795 32.0167 118.512 31.45 118.145 31.15C117.778 30.8167 117.328 30.5667 116.795 30.4C116.562 30.3 116.345 30.1667 116.145 30C115.978 29.8333 115.895 29.6 115.895 29.3C115.895 28.8333 116.078 28.3167 116.445 27.75C116.812 27.1833 117.328 26.7 117.995 26.3C118.695 25.8667 119.478 25.65 120.345 25.65C121.478 25.65 122.262 26.05 122.695 26.85C123.128 27.6167 123.345 28.6333 123.345 29.9C123.345 30.7333 123.262 31.6667 123.095 32.7C122.928 33.7333 122.762 34.6667 122.595 35.5L122.745 35.55C123.412 33.7833 124.212 32.15 125.145 30.65C126.112 29.1167 127.228 27.8833 128.495 26.95C129.762 26.0167 131.228 25.55 132.895 25.55C134.662 25.55 136.012 26.0833 136.945 27.15C137.878 28.2167 138.345 29.55 138.345 31.15C138.345 31.8167 138.262 32.45 138.095 33.05C137.962 33.65 137.812 34.2333 137.645 34.8C137.478 35.3333 137.328 35.8833 137.195 36.45C137.095 37.0167 137.045 37.5833 137.045 38.15C137.045 40.05 137.945 41.3333 139.745 42C140.212 42.2 140.445 42.5 140.445 42.9C140.445 43.2 140.345 43.6333 140.145 44.2C139.945 44.7667 139.578 45.3 139.045 45.8C138.512 46.2667 137.728 46.5 136.695 46.5C135.362 46.5 134.328 46.0333 133.595 45.1C132.862 44.1333 132.495 42.9167 132.495 41.45C132.495 40.6167 132.578 39.7833 132.745 38.95C132.945 38.0833 133.145 37.2833 133.345 36.55C133.478 35.9833 133.595 35.4333 133.695 34.9C133.828 34.3333 133.895 33.8333 133.895 33.4C133.895 31.8667 133.095 31.1 131.495 31.1C130.128 31.1 128.928 31.6167 127.895 32.65C126.862 33.65 125.978 34.9167 125.245 36.45C124.512 37.9833 123.912 39.5333 123.445 41.1V42.3C123.445 43.5333 123.095 44.55 122.395 45.35C121.728 46.15 120.812 46.55 119.645 46.55ZM151.652 46.65C148.752 46.65 146.552 45.9833 145.052 44.65C143.552 43.2833 142.802 41.3167 142.802 38.75C142.802 36.9167 143.118 35.4833 143.752 34.45C144.385 33.3833 144.968 32.5833 145.502 32.05C145.968 31.5833 146.352 31.3 146.652 31.2C146.952 31.0667 147.202 31 147.402 31C147.835 31 148.168 31.1167 148.402 31.35C148.668 31.5833 148.802 31.8833 148.802 32.25C148.802 32.4833 148.752 32.7 148.652 32.9C148.585 33.0667 148.502 33.2167 148.402 33.35C147.702 34.25 147.352 35.3667 147.352 36.7C147.352 38.2333 147.885 39.35 148.952 40.05C150.018 40.75 151.402 41.1 153.102 41.1C155.468 41.1 157.185 40.45 158.252 39.15C159.318 37.8167 159.935 36.0333 160.102 33.8C160.168 33 160.202 32.0833 160.202 31.05C160.235 30.0167 160.252 29.0333 160.252 28.1C160.185 24.6 159.902 21.6833 159.402 19.35C158.568 19.2833 157.668 19.2333 156.702 19.2C155.735 19.1667 154.818 19.15 153.952 19.15C150.952 19.15 148.602 19.3667 146.902 19.8C146.335 19.9333 145.868 20 145.502 20C145.235 20 145.035 19.95 144.902 19.85C144.802 19.7167 144.752 19.4333 144.752 19C144.752 18.4 144.852 17.8167 145.052 17.25C145.252 16.6833 145.518 16.1833 145.852 15.75C146.218 15.25 146.652 14.9 147.152 14.7C147.652 14.4667 148.268 14.3167 149.002 14.25C150.135 14.15 151.452 14.0667 152.952 14C154.485 13.9 156.218 13.85 158.152 13.85C159.752 13.85 161.035 13.8833 162.002 13.95C163.002 14.0167 163.702 14.0833 164.102 14.15C164.568 14.2167 164.902 14.3667 165.102 14.6C165.302 14.8333 165.402 15.2167 165.402 15.75C165.402 16.2167 165.318 16.7 165.152 17.2C165.018 17.7 164.818 18.1333 164.552 18.5C164.618 22.9667 164.535 27.0167 164.302 30.65C164.102 34.25 163.452 37.3 162.352 39.8C160.285 44.3667 156.718 46.65 151.652 46.65ZM177.089 46.65C174.789 46.65 172.939 46.0333 171.539 44.8C170.172 43.5333 169.489 41.6833 169.489 39.25C169.489 38.1167 169.639 37.0167 169.939 35.95C170.272 34.8833 170.706 33.8833 171.239 32.95C170.706 33.2833 170.306 33.45 170.039 33.45C169.639 33.45 169.356 33.2333 169.189 32.8C169.056 32.3333 168.989 31.8833 168.989 31.45C168.989 30.6833 169.139 30.0833 169.439 29.65C169.772 29.1833 170.089 28.8333 170.389 28.6C171.089 28 172.189 27.35 173.689 26.65C175.189 25.9167 176.989 25.55 179.089 25.55C181.956 25.55 184.172 26.35 185.739 27.95C187.339 29.55 188.139 31.7833 188.139 34.65C188.139 36.8833 187.672 38.9167 186.739 40.75C185.806 42.55 184.506 43.9833 182.839 45.05C181.206 46.1167 179.289 46.65 177.089 46.65ZM178.639 41.55C180.306 41.55 181.706 41.0333 182.839 40C184.006 38.9333 184.589 37.5333 184.589 35.8C184.589 34 184.006 32.7167 182.839 31.95C181.672 31.1833 180.322 30.8 178.789 30.8C178.089 30.8 177.456 30.8667 176.889 31C176.322 31.1333 175.789 31.3 175.289 31.5C174.822 32.1667 174.406 32.9167 174.039 33.75C173.672 34.5833 173.489 35.5 173.489 36.5C173.489 38.1667 173.989 39.4333 174.989 40.3C175.989 41.1333 177.206 41.55 178.639 41.55ZM198.592 46.65C197.358 46.65 196.208 46.4667 195.142 46.1C194.075 45.7333 193.208 45.2167 192.542 44.55C191.875 43.8833 191.542 43.0833 191.542 42.15C191.542 41.65 191.658 41.1833 191.892 40.75C192.158 40.2833 192.575 40.05 193.142 40.05C193.442 40.05 193.758 40.1333 194.092 40.3C194.692 40.6333 195.458 40.95 196.392 41.25C197.325 41.5167 198.308 41.65 199.342 41.65C200.508 41.65 201.542 41.4833 202.442 41.15C203.342 40.8167 203.792 40.35 203.792 39.75C203.792 39.2833 203.442 38.95 202.742 38.75C202.075 38.55 200.942 38.3333 199.342 38.1C198.242 37.9 197.175 37.6667 196.142 37.4C195.108 37.1333 194.258 36.6833 193.592 36.05C192.925 35.3833 192.592 34.4167 192.592 33.15C192.592 31.9167 192.925 30.7333 193.592 29.6C194.292 28.4333 195.325 27.4667 196.692 26.7C198.058 25.9333 199.725 25.55 201.692 25.55C202.725 25.55 203.725 25.6667 204.692 25.9C205.658 26.1333 206.458 26.4833 207.092 26.95C207.725 27.4167 208.042 28 208.042 28.7C208.042 29.3 207.825 29.85 207.392 30.35C206.992 30.85 206.508 31.2667 205.942 31.6C205.408 31.9 204.958 32.05 204.592 32.05C204.325 32.05 204.008 31.8667 203.642 31.5C203.075 31.0333 202.442 30.7167 201.742 30.55C201.075 30.35 200.408 30.25 199.742 30.25C198.742 30.25 197.925 30.4 197.292 30.7C196.692 31 196.392 31.3833 196.392 31.85C196.392 32.2833 196.642 32.6333 197.142 32.9C197.675 33.1667 198.325 33.3667 199.092 33.5C199.858 33.6 200.592 33.7 201.292 33.8C203.225 34.0667 204.758 34.5333 205.892 35.2C207.025 35.8333 207.592 36.9667 207.592 38.6C207.592 39.8667 207.225 41.1333 206.492 42.4C205.792 43.6333 204.758 44.65 203.392 45.45C202.058 46.25 200.458 46.65 198.592 46.65ZM213.963 46.55C213.497 46.55 213.097 46.4333 212.763 46.2C212.43 46 212.297 45.7167 212.363 45.35C212.863 42.6833 213.28 39.9833 213.613 37.25C213.98 34.4833 214.163 31.7 214.163 28.9C214.163 26.4333 214.08 24.2 213.913 22.2C213.747 20.2 213.213 18.2833 212.313 16.45C212.147 16.0833 212.013 15.7667 211.913 15.5C211.813 15.2333 211.763 14.9833 211.763 14.75C211.763 14.1167 212.13 13.5 212.863 12.9C213.63 12.3 214.43 12 215.263 12C216.43 12 217.23 12.7333 217.663 14.2C218.097 15.6667 218.313 17.8333 218.313 20.7C218.313 24.1333 218.113 27.1333 217.713 29.7C217.313 32.2333 216.963 34.1667 216.663 35.5L216.863 35.6C217.53 33.8333 218.33 32.1833 219.263 30.65C220.23 29.1167 221.347 27.8833 222.613 26.95C223.88 26.0167 225.347 25.55 227.013 25.55C228.78 25.55 230.113 26.0833 231.013 27.15C231.947 28.2167 232.413 29.5333 232.413 31.1C232.413 31.7667 232.347 32.4167 232.213 33.05C232.08 33.65 231.93 34.2333 231.763 34.8C231.597 35.3333 231.447 35.8833 231.313 36.45C231.18 36.9833 231.113 37.5333 231.113 38.1C231.113 39.1333 231.363 39.9833 231.863 40.65C232.363 41.2833 233.03 41.7333 233.863 42C234.097 42.0667 234.263 42.1667 234.363 42.3C234.497 42.4 234.563 42.6 234.563 42.9C234.563 43.2 234.463 43.6333 234.263 44.2C234.063 44.7667 233.697 45.3 233.163 45.8C232.63 46.2667 231.847 46.5 230.813 46.5C229.48 46.5 228.447 46.0333 227.713 45.1C226.98 44.1333 226.613 42.9 226.613 41.4C226.613 40.6667 226.68 39.9167 226.813 39.15C226.98 38.3833 227.163 37.65 227.363 36.95C227.53 36.25 227.68 35.6 227.813 35C227.947 34.3667 228.013 33.8333 228.013 33.4C228.013 31.8667 227.213 31.1 225.613 31.1C224.28 31.1 223.097 31.5833 222.063 32.55C221.063 33.4833 220.197 34.6833 219.463 36.15C218.763 37.5833 218.18 39.0667 217.713 40.6V42.3C217.713 43.5333 217.347 44.55 216.613 45.35C215.913 46.15 215.03 46.55 213.963 46.55Z" fill="white"/>
<line x1="0.995686" y1="3.87625" x2="255.996" y2="3.49852" stroke="#FDC632" stroke-width="5"/>
<line x1="149.998" y1="64" x2="255.758" y2="64" stroke="#FDC632" stroke-width="5"/>
<line x1="0.999969" y1="63.7024" x2="28.5901" y2="63.7024" stroke="#FDC632" stroke-width="5"/>
<line x1="3.49997" y1="1.59523" x2="3.49997" y2="63.0119" stroke="#FDC632" stroke-width="5"/>
<line x1="253.32" y1="3" x2="253.32" y2="65" stroke="#FDC632" stroke-width="5"/>
<path d="M34.928 67.208C34.1813 67.208 33.5946 66.984 33.168 66.536C32.752 66.0773 32.544 65.4427 32.544 64.632C32.544 63.832 32.7146 63.1173 33.056 62.488C33.3973 61.8587 33.8666 61.3627 34.464 61C35.0613 60.6373 35.7386 60.456 36.496 60.456C37.008 60.456 37.4133 60.5413 37.712 60.712C38.0106 60.8827 38.16 61.1173 38.16 61.416C38.16 61.6827 38.032 61.944 37.776 62.2C37.68 62.296 37.552 62.3867 37.392 62.472C37.2426 62.5467 37.1253 62.584 37.04 62.584C36.944 62.584 36.864 62.5467 36.8 62.472C36.6933 62.3547 36.5546 62.2427 36.384 62.136C36.2133 62.0293 35.9733 61.976 35.664 61.976C35.1413 61.976 34.7146 62.1573 34.384 62.52C34.0533 62.872 33.888 63.336 33.888 63.912C33.888 64.4347 34.0373 64.856 34.336 65.176C34.6346 65.496 35.0293 65.656 35.52 65.656C35.776 65.656 36.0533 65.6133 36.352 65.528C36.6613 65.432 36.9333 65.2987 37.168 65.128C37.2853 65.0213 37.408 64.968 37.536 64.968C37.7493 64.968 37.856 65.1013 37.856 65.368C37.856 65.72 37.68 66.056 37.328 66.376C37.0613 66.6213 36.704 66.824 36.256 66.984C35.8186 67.1333 35.376 67.208 34.928 67.208ZM40.1305 67.176C39.9598 67.176 39.8211 67.144 39.7145 67.08C39.6185 67.0267 39.5865 66.9307 39.6185 66.792C39.7358 66.3333 39.8318 65.8693 39.9065 65.4C39.9918 64.92 40.0345 64.4613 40.0345 64.024C40.0345 63.4587 39.9971 63.048 39.9225 62.792C39.8585 62.5253 39.7678 62.344 39.6505 62.248C39.5331 62.1413 39.3891 62.0613 39.2185 62.008C39.1438 61.976 39.0745 61.9333 39.0105 61.88C38.9571 61.8267 38.9305 61.752 38.9305 61.656C38.9305 61.5067 38.9891 61.3413 39.1065 61.16C39.2238 60.9787 39.3891 60.824 39.6025 60.696C39.8158 60.5573 40.0611 60.488 40.3385 60.488C40.7011 60.488 40.9518 60.616 41.0905 60.872C41.2398 61.1173 41.3145 61.4427 41.3145 61.848C41.5065 61.4213 41.7411 61.0853 42.0185 60.84C42.3065 60.584 42.6638 60.456 43.0905 60.456C43.3785 60.456 43.6185 60.52 43.8105 60.648C44.0025 60.776 44.0985 60.984 44.0985 61.272C44.0985 61.56 44.0025 61.832 43.8105 62.088C43.6291 62.3333 43.4425 62.456 43.2505 62.456C43.2185 62.456 43.1811 62.4507 43.1385 62.44C43.0958 62.4293 43.0585 62.4027 43.0265 62.36C42.8878 62.1893 42.7171 62.104 42.5145 62.104C42.2051 62.104 41.9331 62.3067 41.6985 62.712C41.4638 63.1173 41.3358 63.6773 41.3145 64.392C41.3251 64.6587 41.3305 64.9307 41.3305 65.208C41.3411 65.4853 41.3465 65.688 41.3465 65.816C41.3465 66.2107 41.2345 66.536 41.0105 66.792C40.7971 67.048 40.5038 67.176 40.1305 67.176ZM46.7918 67.208C45.9812 67.208 45.3465 66.9787 44.8878 66.52C44.4398 66.0507 44.2158 65.4 44.2158 64.568C44.2158 63.8107 44.3812 63.1227 44.7118 62.504C45.0425 61.8853 45.4852 61.3947 46.0398 61.032C46.6052 60.6587 47.2238 60.472 47.8958 60.472C48.5358 60.472 49.0478 60.632 49.4318 60.952C49.8158 61.2613 50.0078 61.6773 50.0078 62.2C50.0078 62.616 49.8798 63 49.6238 63.352C49.3678 63.704 49.0265 63.9867 48.5998 64.2C48.1732 64.4027 47.6985 64.504 47.1758 64.504C46.5358 64.504 46.0132 64.36 45.6078 64.072C45.6185 64.5627 45.7838 64.9573 46.1038 65.256C46.4345 65.5547 46.8558 65.704 47.3678 65.704C47.6772 65.704 47.9918 65.6507 48.3118 65.544C48.6425 65.4267 48.9252 65.272 49.1598 65.08C49.3092 64.952 49.4478 64.888 49.5758 64.888C49.6825 64.888 49.7678 64.9253 49.8318 65C49.9065 65.064 49.9438 65.1493 49.9438 65.256C49.9438 65.4907 49.7412 65.8 49.3358 66.184C48.6212 66.8667 47.7732 67.208 46.7918 67.208ZM47.0318 63.448C47.4158 63.448 47.7358 63.368 47.9918 63.208C48.2478 63.048 48.3758 62.8453 48.3758 62.6C48.3758 62.3973 48.2905 62.2427 48.1198 62.136C47.9492 62.0187 47.7145 61.96 47.4158 61.96C47.0212 61.96 46.6745 62.0667 46.3758 62.28C46.0878 62.4827 45.8798 62.7707 45.7518 63.144C45.9012 63.24 46.0932 63.3147 46.3278 63.368C46.5625 63.4213 46.7972 63.448 47.0318 63.448ZM53.217 67.208C52.577 67.208 52.0596 67.0107 51.665 66.616C51.281 66.2107 51.089 65.6347 51.089 64.888C51.089 64.3547 51.1903 63.8267 51.393 63.304C51.6063 62.7707 51.9103 62.2907 52.305 61.864C52.6996 61.4373 53.1743 61.096 53.729 60.84C54.2836 60.584 54.9076 60.456 55.601 60.456C56.241 60.456 56.785 60.568 57.233 60.792C57.6916 61.0053 57.921 61.2987 57.921 61.672C57.921 61.768 57.9103 61.896 57.889 62.056C57.8676 62.2053 57.841 62.328 57.809 62.424C57.777 62.5093 57.729 62.5893 57.665 62.664C57.6116 62.728 57.537 62.76 57.441 62.76C57.3983 62.76 57.3183 62.744 57.201 62.712C57.1583 62.936 57.1263 63.1547 57.105 63.368C57.0836 63.5813 57.073 63.7947 57.073 64.008C57.073 64.4133 57.1316 64.776 57.249 65.096C57.377 65.4053 57.6223 65.5973 57.985 65.672C58.081 65.6933 58.1556 65.7253 58.209 65.768C58.273 65.8107 58.305 65.9013 58.305 66.04C58.305 66.1573 58.273 66.3067 58.209 66.488C58.1556 66.6693 58.0436 66.8347 57.873 66.984C57.713 67.1227 57.4783 67.192 57.169 67.192C56.753 67.192 56.433 67.0427 56.209 66.744C55.985 66.4347 55.873 65.9973 55.873 65.432C55.585 65.9547 55.217 66.3813 54.769 66.712C54.3316 67.0427 53.8143 67.208 53.217 67.208ZM53.729 65.544C54.1556 65.544 54.529 65.4107 54.849 65.144C55.1796 64.8773 55.4356 64.5413 55.617 64.136C55.7343 63.88 55.825 63.6027 55.889 63.304C55.953 62.9947 55.9956 62.6907 56.017 62.392C55.8356 62.3067 55.6276 62.2373 55.393 62.184C55.1583 62.1307 54.913 62.104 54.657 62.104C54.0063 62.104 53.4676 62.296 53.041 62.68C52.625 63.064 52.417 63.544 52.417 64.12C52.417 64.5467 52.5343 64.8933 52.769 65.16C53.0036 65.416 53.3236 65.544 53.729 65.544ZM61.6315 67.208C60.9808 67.208 60.5115 66.9947 60.2235 66.568C59.9461 66.1307 59.8075 65.5707 59.8075 64.888C59.8075 64.6427 59.8181 64.4027 59.8395 64.168C59.8715 63.9333 59.9035 63.6987 59.9355 63.464C59.9675 63.2293 59.9995 63 60.0315 62.776C60.0635 62.552 60.0901 62.3387 60.1115 62.136C59.8875 62.2 59.6635 62.232 59.4395 62.232C59.2048 62.232 59.0875 62.136 59.0875 61.944C59.0875 61.7413 59.1781 61.496 59.3595 61.208C59.5408 60.9093 59.7648 60.616 60.0315 60.328C60.3088 60.04 60.5808 59.8 60.8475 59.608C61.1248 59.4053 61.3595 59.304 61.5515 59.304C61.7861 59.304 61.9035 59.5067 61.9035 59.912C61.9035 60.0187 61.8928 60.1307 61.8715 60.248C61.8608 60.3547 61.8448 60.4667 61.8235 60.584C62.0261 60.5413 62.2288 60.504 62.4315 60.472C62.6448 60.44 62.8475 60.424 63.0395 60.424C63.2848 60.424 63.4715 60.4667 63.5995 60.552C63.7381 60.6373 63.8075 60.8027 63.8075 61.048C63.8075 61.304 63.7435 61.56 63.6155 61.816C63.4981 62.072 63.3648 62.2 63.2155 62.2C63.1835 62.2 63.1301 62.1947 63.0555 62.184C62.9808 62.1733 62.8901 62.1573 62.7835 62.136C62.6448 62.104 62.4688 62.072 62.2555 62.04C62.0421 62.008 61.7861 61.992 61.4875 61.992C61.4128 62.3227 61.3435 62.664 61.2795 63.016C61.2261 63.3573 61.1995 63.6667 61.1995 63.944C61.1995 64.5627 61.3541 64.984 61.6635 65.208C61.9728 65.432 62.4208 65.544 63.0075 65.544C63.1888 65.544 63.3168 65.576 63.3915 65.64C63.4661 65.6933 63.5035 65.7947 63.5035 65.944C63.5035 66.296 63.3221 66.5947 62.9595 66.84C62.5968 67.0853 62.1541 67.208 61.6315 67.208ZM65.9988 59.048C65.7002 59.0373 65.4602 58.9467 65.2788 58.776C65.0975 58.6053 65.0068 58.3653 65.0068 58.056C65.0175 57.7253 65.1295 57.4587 65.3428 57.256C65.5562 57.0427 65.8282 56.9413 66.1588 56.952C66.4682 56.9627 66.7082 57.0533 66.8788 57.224C67.0602 57.3947 67.1455 57.6347 67.1348 57.944C67.1242 58.264 67.0175 58.5307 66.8148 58.744C66.6122 58.9467 66.3402 59.048 65.9988 59.048ZM66.0148 67.16C65.6948 67.16 65.4442 67.0747 65.2628 66.904C65.0815 66.7227 64.9908 66.4187 64.9908 65.992C64.9908 65.7467 65.0122 65.5067 65.0548 65.272C65.1082 65.0373 65.1668 64.808 65.2308 64.584C65.3055 64.3493 65.3642 64.1093 65.4068 63.864C65.4602 63.6187 65.4868 63.3573 65.4868 63.08C65.4868 62.888 65.4602 62.7067 65.4068 62.536C65.3535 62.3547 65.2362 62.2213 65.0548 62.136C64.9162 62.0613 64.7935 61.9867 64.6868 61.912C64.5908 61.8267 64.5428 61.72 64.5428 61.592C64.5428 61.4427 64.6122 61.2827 64.7508 61.112C64.8895 60.9413 65.0708 60.7973 65.2948 60.68C65.5295 60.552 65.7695 60.488 66.0148 60.488C66.2815 60.488 66.4735 60.5573 66.5908 60.696C66.7188 60.8347 66.8042 61.0107 66.8468 61.224C66.8895 61.4373 66.9108 61.656 66.9108 61.88C66.9108 62.2213 66.8842 62.5573 66.8308 62.888C66.7775 63.208 66.7242 63.5067 66.6708 63.784C66.6282 63.9867 66.5962 64.1733 66.5748 64.344C66.5535 64.5147 66.5428 64.6747 66.5428 64.824C66.5428 65.0907 66.6068 65.2933 66.7348 65.432C66.8628 65.56 67.0442 65.6827 67.2788 65.8C67.3748 65.8533 67.4228 65.9333 67.4228 66.04C67.4228 66.1253 67.3802 66.2587 67.2948 66.44C67.2095 66.6213 67.0602 66.7867 66.8468 66.936C66.6442 67.0853 66.3668 67.16 66.0148 67.16ZM70.8796 67.224C70.5916 67.224 70.3409 67.1387 70.1276 66.968C69.9249 66.7867 69.8023 66.456 69.7596 65.976C69.7383 65.6133 69.6903 65.2133 69.6156 64.776C69.5516 64.3387 69.4663 63.9227 69.3596 63.528C69.2529 63.1333 69.1303 62.824 68.9916 62.6C68.9169 62.4827 68.8316 62.3973 68.7356 62.344C68.6503 62.28 68.5169 62.2373 68.3356 62.216C68.2183 62.2053 68.1383 62.168 68.0956 62.104C68.0529 62.04 68.0316 61.9387 68.0316 61.8C68.0316 61.3627 68.1489 61.0427 68.3836 60.84C68.6289 60.6267 68.9063 60.52 69.2156 60.52C69.5356 60.52 69.8023 60.6267 70.0156 60.84C70.2289 61.0427 70.3943 61.3147 70.5116 61.656C70.6289 61.9973 70.7089 62.376 70.7516 62.792C70.8049 63.1973 70.8316 63.608 70.8316 64.024C70.8316 64.1947 70.8263 64.376 70.8156 64.568C70.8156 64.7493 70.8156 64.904 70.8156 65.032C70.8156 65.1493 70.8369 65.24 70.8796 65.304C70.9329 65.368 71.0289 65.4 71.1676 65.4C71.3383 65.4 71.5356 65.352 71.7596 65.256C71.9836 65.1493 72.2023 65 72.4156 64.808C72.6396 64.616 72.8209 64.392 72.9596 64.136C73.1089 63.8693 73.1836 63.576 73.1836 63.256C73.1836 63.0747 73.1516 62.8827 73.0876 62.68C73.0343 62.4773 72.9436 62.3067 72.8156 62.168C72.6876 62.0293 72.5916 61.9227 72.5276 61.848C72.4743 61.7627 72.4476 61.6667 72.4476 61.56C72.4476 61.368 72.5329 61.192 72.7036 61.032C72.8849 60.872 73.0929 60.744 73.3276 60.648C73.5729 60.552 73.7863 60.504 73.9676 60.504C74.2769 60.504 74.4743 60.632 74.5596 60.888C74.6449 61.144 74.6876 61.4267 74.6876 61.736C74.6876 62.3227 74.5809 62.936 74.3676 63.576C74.1543 64.216 73.8663 64.8133 73.5036 65.368C73.1409 65.9227 72.7303 66.3707 72.2716 66.712C71.8236 67.0533 71.3596 67.224 70.8796 67.224ZM78.2137 67.208C77.4031 67.208 76.7684 66.9787 76.3097 66.52C75.8617 66.0507 75.6377 65.4 75.6377 64.568C75.6377 63.8107 75.8031 63.1227 76.1337 62.504C76.4644 61.8853 76.9071 61.3947 77.4617 61.032C78.0271 60.6587 78.6457 60.472 79.3177 60.472C79.9577 60.472 80.4697 60.632 80.8537 60.952C81.2377 61.2613 81.4297 61.6773 81.4297 62.2C81.4297 62.616 81.3017 63 81.0457 63.352C80.7897 63.704 80.4484 63.9867 80.0217 64.2C79.5951 64.4027 79.1204 64.504 78.5977 64.504C77.9577 64.504 77.4351 64.36 77.0297 64.072C77.0404 64.5627 77.2057 64.9573 77.5257 65.256C77.8564 65.5547 78.2777 65.704 78.7897 65.704C79.0991 65.704 79.4137 65.6507 79.7337 65.544C80.0644 65.4267 80.3471 65.272 80.5817 65.08C80.7311 64.952 80.8697 64.888 80.9977 64.888C81.1044 64.888 81.1897 64.9253 81.2537 65C81.3284 65.064 81.3657 65.1493 81.3657 65.256C81.3657 65.4907 81.1631 65.8 80.7577 66.184C80.0431 66.8667 79.1951 67.208 78.2137 67.208ZM78.4537 63.448C78.8377 63.448 79.1577 63.368 79.4137 63.208C79.6697 63.048 79.7977 62.8453 79.7977 62.6C79.7977 62.3973 79.7124 62.2427 79.5417 62.136C79.3711 62.0187 79.1364 61.96 78.8377 61.96C78.4431 61.96 78.0964 62.0667 77.7977 62.28C77.5097 62.4827 77.3017 62.7707 77.1737 63.144C77.3231 63.24 77.5151 63.3147 77.7497 63.368C77.9844 63.4213 78.2191 63.448 78.4537 63.448ZM89.2955 67.208C88.6555 67.208 88.1488 66.9947 87.7755 66.568C87.4128 66.1413 87.2315 65.56 87.2315 64.824C87.2315 64.28 87.3168 63.7467 87.4875 63.224C87.6688 62.7013 87.9195 62.232 88.2395 61.816C88.5595 61.4 88.9328 61.0693 89.3595 60.824C89.7861 60.5787 90.2501 60.456 90.7515 60.456C91.0715 60.456 91.3541 60.504 91.5995 60.6C91.8555 60.696 92.0795 60.8187 92.2715 60.968C92.2608 60.2427 92.2235 59.592 92.1595 59.016C92.0955 58.44 91.9408 57.9067 91.6955 57.416C91.6528 57.3307 91.6155 57.256 91.5835 57.192C91.5621 57.1173 91.5515 57.048 91.5515 56.984C91.5515 56.8347 91.6101 56.696 91.7275 56.568C91.8555 56.44 92.0101 56.3333 92.1915 56.248C92.3728 56.1627 92.5435 56.12 92.7035 56.12C92.9915 56.12 93.2048 56.248 93.3435 56.504C93.4928 56.7493 93.5888 57.0907 93.6315 57.528C93.6741 57.9547 93.6955 58.4453 93.6955 59C93.6955 59.8107 93.6581 60.5413 93.5835 61.192C93.5088 61.8427 93.4395 62.4133 93.3755 62.904C93.3328 63.224 93.2955 63.5013 93.2635 63.736C93.2315 63.9707 93.2155 64.1627 93.2155 64.312C93.2155 65.0693 93.5408 65.5173 94.1915 65.656C94.3621 65.688 94.4475 65.8 94.4475 65.992C94.4475 66.1093 94.4101 66.2587 94.3355 66.44C94.2715 66.6213 94.1488 66.7867 93.9675 66.936C93.7861 67.0747 93.5248 67.144 93.1835 67.144C92.7248 67.144 92.4155 66.9893 92.2555 66.68C92.0955 66.3707 92.0155 65.9013 92.0155 65.272C91.7168 65.816 91.3381 66.2747 90.8795 66.648C90.4208 67.0213 89.8928 67.208 89.2955 67.208ZM89.7915 65.496C90.0901 65.496 90.3888 65.4 90.6875 65.208C90.9861 65.016 91.2528 64.7547 91.4875 64.424C91.6261 64.2213 91.7488 63.992 91.8555 63.736C91.9728 63.4693 92.0795 63.2027 92.1755 62.936C91.6315 62.4453 91.0288 62.2 90.3675 62.2C89.7915 62.2 89.3328 62.376 88.9915 62.728C88.6501 63.0693 88.4795 63.496 88.4795 64.008C88.4795 64.4453 88.6075 64.8027 88.8635 65.08C89.1195 65.3573 89.4288 65.496 89.7915 65.496ZM97.995 67.208C97.1843 67.208 96.5496 66.9787 96.091 66.52C95.643 66.0507 95.419 65.4 95.419 64.568C95.419 63.8107 95.5843 63.1227 95.915 62.504C96.2456 61.8853 96.6883 61.3947 97.243 61.032C97.8083 60.6587 98.427 60.472 99.099 60.472C99.739 60.472 100.251 60.632 100.635 60.952C101.019 61.2613 101.211 61.6773 101.211 62.2C101.211 62.616 101.083 63 100.827 63.352C100.571 63.704 100.23 63.9867 99.803 64.2C99.3763 64.4027 98.9016 64.504 98.379 64.504C97.739 64.504 97.2163 64.36 96.811 64.072C96.8216 64.5627 96.987 64.9573 97.307 65.256C97.6376 65.5547 98.059 65.704 98.571 65.704C98.8803 65.704 99.195 65.6507 99.515 65.544C99.8456 65.4267 100.128 65.272 100.363 65.08C100.512 64.952 100.651 64.888 100.779 64.888C100.886 64.888 100.971 64.9253 101.035 65C101.11 65.064 101.147 65.1493 101.147 65.256C101.147 65.4907 100.944 65.8 100.539 66.184C99.8243 66.8667 98.9763 67.208 97.995 67.208ZM98.235 63.448C98.619 63.448 98.939 63.368 99.195 63.208C99.451 63.048 99.579 62.8453 99.579 62.6C99.579 62.3973 99.4936 62.2427 99.323 62.136C99.1523 62.0187 98.9176 61.96 98.619 61.96C98.2243 61.96 97.8776 62.0667 97.579 62.28C97.291 62.4827 97.083 62.7707 96.955 63.144C97.1043 63.24 97.2963 63.3147 97.531 63.368C97.7656 63.4213 98.0003 63.448 98.235 63.448ZM104.692 67.224C104.404 67.224 104.153 67.1387 103.94 66.968C103.737 66.7867 103.615 66.456 103.572 65.976C103.551 65.6133 103.503 65.2133 103.428 64.776C103.364 64.3387 103.279 63.9227 103.172 63.528C103.065 63.1333 102.943 62.824 102.804 62.6C102.729 62.4827 102.644 62.3973 102.548 62.344C102.463 62.28 102.329 62.2373 102.148 62.216C102.031 62.2053 101.951 62.168 101.908 62.104C101.865 62.04 101.844 61.9387 101.844 61.8C101.844 61.3627 101.961 61.0427 102.196 60.84C102.441 60.6267 102.719 60.52 103.028 60.52C103.348 60.52 103.615 60.6267 103.828 60.84C104.041 61.0427 104.207 61.3147 104.324 61.656C104.441 61.9973 104.521 62.376 104.564 62.792C104.617 63.1973 104.644 63.608 104.644 64.024C104.644 64.1947 104.639 64.376 104.628 64.568C104.628 64.7493 104.628 64.904 104.628 65.032C104.628 65.1493 104.649 65.24 104.692 65.304C104.745 65.368 104.841 65.4 104.98 65.4C105.151 65.4 105.348 65.352 105.572 65.256C105.796 65.1493 106.015 65 106.228 64.808C106.452 64.616 106.633 64.392 106.772 64.136C106.921 63.8693 106.996 63.576 106.996 63.256C106.996 63.0747 106.964 62.8827 106.9 62.68C106.847 62.4773 106.756 62.3067 106.628 62.168C106.5 62.0293 106.404 61.9227 106.34 61.848C106.287 61.7627 106.26 61.6667 106.26 61.56C106.26 61.368 106.345 61.192 106.516 61.032C106.697 60.872 106.905 60.744 107.14 60.648C107.385 60.552 107.599 60.504 107.78 60.504C108.089 60.504 108.287 60.632 108.372 60.888C108.457 61.144 108.5 61.4267 108.5 61.736C108.5 62.3227 108.393 62.936 108.18 63.576C107.967 64.216 107.679 64.8133 107.316 65.368C106.953 65.9227 106.543 66.3707 106.084 66.712C105.636 67.0533 105.172 67.224 104.692 67.224ZM112.026 67.208C111.216 67.208 110.581 66.9787 110.122 66.52C109.674 66.0507 109.45 65.4 109.45 64.568C109.45 63.8107 109.616 63.1227 109.946 62.504C110.277 61.8853 110.72 61.3947 111.274 61.032C111.84 60.6587 112.458 60.472 113.13 60.472C113.77 60.472 114.282 60.632 114.666 60.952C115.05 61.2613 115.242 61.6773 115.242 62.2C115.242 62.616 115.114 63 114.858 63.352C114.602 63.704 114.261 63.9867 113.834 64.2C113.408 64.4027 112.933 64.504 112.41 64.504C111.77 64.504 111.248 64.36 110.842 64.072C110.853 64.5627 111.018 64.9573 111.338 65.256C111.669 65.5547 112.09 65.704 112.602 65.704C112.912 65.704 113.226 65.6507 113.546 65.544C113.877 65.4267 114.16 65.272 114.394 65.08C114.544 64.952 114.682 64.888 114.81 64.888C114.917 64.888 115.002 64.9253 115.066 65C115.141 65.064 115.178 65.1493 115.178 65.256C115.178 65.4907 114.976 65.8 114.57 66.184C113.856 66.8667 113.008 67.208 112.026 67.208ZM112.266 63.448C112.65 63.448 112.97 63.368 113.226 63.208C113.482 63.048 113.61 62.8453 113.61 62.6C113.61 62.3973 113.525 62.2427 113.354 62.136C113.184 62.0187 112.949 61.96 112.65 61.96C112.256 61.96 111.909 62.0667 111.61 62.28C111.322 62.4827 111.114 62.7707 110.986 63.144C111.136 63.24 111.328 63.3147 111.562 63.368C111.797 63.4213 112.032 63.448 112.266 63.448ZM117.526 67.16C117.217 67.16 116.988 67.0747 116.838 66.904C116.689 66.7333 116.614 66.4347 116.614 66.008C116.614 65.8053 116.63 65.544 116.662 65.224C116.694 64.904 116.732 64.5573 116.774 64.184C116.838 63.7253 116.892 63.2453 116.934 62.744C116.988 62.2427 117.014 61.7627 117.014 61.304C117.014 60.6533 116.982 59.9813 116.918 59.288C116.865 58.584 116.705 57.9707 116.438 57.448C116.342 57.2347 116.294 57.08 116.294 56.984C116.294 56.8453 116.353 56.712 116.47 56.584C116.598 56.456 116.753 56.3493 116.934 56.264C117.116 56.168 117.292 56.12 117.462 56.12C117.74 56.12 117.948 56.248 118.086 56.504C118.225 56.7493 118.316 57.0907 118.358 57.528C118.401 57.9547 118.422 58.4453 118.422 59C118.422 59.8427 118.385 60.5733 118.31 61.192C118.246 61.8107 118.182 62.3547 118.118 62.824C118.076 63.1333 118.033 63.4267 117.99 63.704C117.958 63.9813 117.942 64.232 117.942 64.456C117.942 64.8293 118.001 65.1013 118.118 65.272C118.246 65.432 118.449 65.592 118.726 65.752C118.801 65.7947 118.854 65.8373 118.886 65.88C118.929 65.912 118.95 65.9653 118.95 66.04C118.95 66.1253 118.908 66.2587 118.822 66.44C118.737 66.6213 118.588 66.7867 118.374 66.936C118.172 67.0853 117.889 67.16 117.526 67.16ZM122.511 67.208C121.775 67.208 121.183 67.0107 120.735 66.616C120.298 66.2107 120.079 65.6187 120.079 64.84C120.079 64.4773 120.127 64.1253 120.223 63.784C120.33 63.4427 120.468 63.1227 120.639 62.824C120.468 62.9307 120.34 62.984 120.255 62.984C120.127 62.984 120.036 62.9147 119.983 62.776C119.94 62.6267 119.919 62.4827 119.919 62.344C119.919 62.0987 119.967 61.9067 120.063 61.768C120.17 61.6187 120.271 61.5067 120.367 61.432C120.591 61.24 120.943 61.032 121.423 60.808C121.903 60.5733 122.479 60.456 123.151 60.456C124.068 60.456 124.778 60.712 125.279 61.224C125.791 61.736 126.047 62.4507 126.047 63.368C126.047 64.0827 125.898 64.7333 125.599 65.32C125.3 65.896 124.884 66.3547 124.351 66.696C123.828 67.0373 123.215 67.208 122.511 67.208ZM123.007 65.576C123.54 65.576 123.988 65.4107 124.351 65.08C124.724 64.7387 124.911 64.2907 124.911 63.736C124.911 63.16 124.724 62.7493 124.351 62.504C123.978 62.2587 123.546 62.136 123.055 62.136C122.831 62.136 122.628 62.1573 122.447 62.2C122.266 62.2427 122.095 62.296 121.935 62.36C121.786 62.5733 121.652 62.8133 121.535 63.08C121.418 63.3467 121.359 63.64 121.359 63.96C121.359 64.4933 121.519 64.8987 121.839 65.176C122.159 65.4427 122.548 65.576 123.007 65.576ZM128.194 71.416C127.874 71.416 127.623 71.3253 127.442 71.144C127.261 70.9733 127.17 70.6587 127.17 70.2C127.17 69.8907 127.202 69.5013 127.266 69.032C127.341 68.5627 127.426 68.0667 127.522 67.544C127.597 67.128 127.666 66.6907 127.73 66.232C127.805 65.7733 127.863 65.3253 127.906 64.888C127.959 64.44 127.986 64.04 127.986 63.688C127.986 63.2827 127.938 62.9307 127.842 62.632C127.757 62.3333 127.575 62.1413 127.298 62.056C127.191 62.0133 127.095 61.9653 127.01 61.912C126.925 61.8587 126.882 61.7733 126.882 61.656C126.882 61.5067 126.941 61.3413 127.058 61.16C127.175 60.9787 127.341 60.824 127.554 60.696C127.778 60.5573 128.029 60.488 128.306 60.488C128.669 60.488 128.919 60.616 129.058 60.872C129.197 61.1173 129.266 61.4427 129.266 61.848C129.266 61.9653 129.261 62.088 129.25 62.216C129.239 62.3333 129.223 62.456 129.202 62.584C129.511 61.9867 129.917 61.4853 130.418 61.08C130.93 60.664 131.506 60.456 132.146 60.456C132.786 60.456 133.287 60.6747 133.65 61.112C134.023 61.5387 134.21 62.12 134.21 62.856C134.21 63.4 134.125 63.9333 133.954 64.456C133.783 64.968 133.543 65.432 133.234 65.848C132.925 66.264 132.551 66.5947 132.114 66.84C131.687 67.0853 131.207 67.208 130.674 67.208C130.29 67.208 129.954 67.1387 129.666 67C129.378 66.872 129.127 66.7013 128.914 66.488C128.871 66.7653 128.829 67.1013 128.786 67.496C128.754 67.8907 128.738 68.2587 128.738 68.6C128.738 68.9947 128.781 69.304 128.866 69.528C128.962 69.752 129.143 69.9227 129.41 70.04C129.527 70.0933 129.586 70.1787 129.586 70.296C129.586 70.3813 129.543 70.5147 129.458 70.696C129.373 70.8773 129.229 71.0427 129.026 71.192C128.834 71.3413 128.557 71.416 128.194 71.416ZM131.042 65.48C131.65 65.48 132.119 65.288 132.45 64.904C132.781 64.52 132.946 64.0773 132.946 63.576C132.946 63.1387 132.829 62.8027 132.594 62.568C132.359 62.3227 132.045 62.2 131.65 62.2C131.245 62.2 130.887 62.3227 130.578 62.568C130.269 62.8027 130.002 63.112 129.778 63.496C129.565 63.88 129.389 64.2907 129.25 64.728C129.783 65.2293 130.381 65.48 131.042 65.48ZM137.948 67.208C137.137 67.208 136.503 66.9787 136.044 66.52C135.596 66.0507 135.372 65.4 135.372 64.568C135.372 63.8107 135.537 63.1227 135.868 62.504C136.199 61.8853 136.641 61.3947 137.196 61.032C137.761 60.6587 138.38 60.472 139.052 60.472C139.692 60.472 140.204 60.632 140.588 60.952C140.972 61.2613 141.164 61.6773 141.164 62.2C141.164 62.616 141.036 63 140.78 63.352C140.524 63.704 140.183 63.9867 139.756 64.2C139.329 64.4027 138.855 64.504 138.332 64.504C137.692 64.504 137.169 64.36 136.764 64.072C136.775 64.5627 136.94 64.9573 137.26 65.256C137.591 65.5547 138.012 65.704 138.524 65.704C138.833 65.704 139.148 65.6507 139.468 65.544C139.799 65.4267 140.081 65.272 140.316 65.08C140.465 64.952 140.604 64.888 140.732 64.888C140.839 64.888 140.924 64.9253 140.988 65C141.063 65.064 141.1 65.1493 141.1 65.256C141.1 65.4907 140.897 65.8 140.492 66.184C139.777 66.8667 138.929 67.208 137.948 67.208ZM138.188 63.448C138.572 63.448 138.892 63.368 139.148 63.208C139.404 63.048 139.532 62.8453 139.532 62.6C139.532 62.3973 139.447 62.2427 139.276 62.136C139.105 62.0187 138.871 61.96 138.572 61.96C138.177 61.96 137.831 62.0667 137.532 62.28C137.244 62.4827 137.036 62.7707 136.908 63.144C137.057 63.24 137.249 63.3147 137.484 63.368C137.719 63.4213 137.953 63.448 138.188 63.448ZM143.349 67.176C143.179 67.176 143.04 67.144 142.933 67.08C142.837 67.0267 142.805 66.9307 142.837 66.792C142.955 66.3333 143.051 65.8693 143.125 65.4C143.211 64.92 143.253 64.4613 143.253 64.024C143.253 63.4587 143.216 63.048 143.141 62.792C143.077 62.5253 142.987 62.344 142.869 62.248C142.752 62.1413 142.608 62.0613 142.437 62.008C142.363 61.976 142.293 61.9333 142.229 61.88C142.176 61.8267 142.149 61.752 142.149 61.656C142.149 61.5067 142.208 61.3413 142.325 61.16C142.443 60.9787 142.608 60.824 142.821 60.696C143.035 60.5573 143.28 60.488 143.557 60.488C143.92 60.488 144.171 60.616 144.309 60.872C144.459 61.1173 144.533 61.4427 144.533 61.848C144.725 61.4213 144.96 61.0853 145.237 60.84C145.525 60.584 145.883 60.456 146.309 60.456C146.597 60.456 146.837 60.52 147.029 60.648C147.221 60.776 147.317 60.984 147.317 61.272C147.317 61.56 147.221 61.832 147.029 62.088C146.848 62.3333 146.661 62.456 146.469 62.456C146.437 62.456 146.4 62.4507 146.357 62.44C146.315 62.4293 146.277 62.4027 146.245 62.36C146.107 62.1893 145.936 62.104 145.733 62.104C145.424 62.104 145.152 62.3067 144.917 62.712C144.683 63.1173 144.555 63.6773 144.533 64.392C144.544 64.6587 144.549 64.9307 144.549 65.208C144.56 65.4853 144.565 65.688 144.565 65.816C144.565 66.2107 144.453 66.536 144.229 66.792C144.016 67.048 143.723 67.176 143.349 67.176Z" fill="#FDC632"/>
</svg>
